<svg width="33" height="32" viewBox="0 0 33 32" fill="none" xmlns="http://www.w3.org/2000/svg">
<g id="vuesax/bold/bus">
<g id="bus">
<path id="Vector" d="M5.83337 17.9999V25.1999C5.83337 27.4666 7.68671 29.3333 9.96671 29.3333H23.0334C25.3 29.3333 27.1667 27.4799 27.1667 25.1999V17.9999C27.1667 17.6266 26.8734 17.3333 26.5 17.3333H6.50004C6.12671 17.3333 5.83337 17.6266 5.83337 17.9999ZM12.34 24.5066C12.0334 24.8266 11.6067 24.9999 11.1667 24.9999C11.06 24.9999 10.9534 24.9866 10.8467 24.9733C10.74 24.9466 10.6334 24.9199 10.5267 24.8666C10.4334 24.8266 10.3267 24.7733 10.2467 24.7199C10.1534 24.6533 10.06 24.5866 9.99337 24.5066C9.67337 24.1999 9.50004 23.7733 9.50004 23.3333C9.50004 22.8933 9.67337 22.4666 9.99337 22.1599C10.06 22.0799 10.1534 22.0133 10.2467 21.9466C10.3267 21.8933 10.4334 21.8399 10.5267 21.7999C10.6334 21.7466 10.74 21.7199 10.8467 21.6933C11.38 21.5866 11.9534 21.7733 12.34 22.1599C12.66 22.4666 12.8334 22.8933 12.8334 23.3333C12.8334 23.7733 12.66 24.1999 12.34 24.5066ZM23.0067 24.5066C22.94 24.5866 22.8467 24.6533 22.7534 24.7199C22.6734 24.7733 22.5667 24.8266 22.4734 24.8666C22.3667 24.9199 22.26 24.9466 22.1667 24.9733C22.0467 24.9866 21.94 24.9999 21.8334 24.9999C21.7267 24.9999 21.62 24.9866 21.5134 24.9733C21.4067 24.9466 21.3 24.9199 21.1934 24.8666C21.1 24.8266 20.9934 24.7733 20.9134 24.7199C20.82 24.6533 20.7267 24.5866 20.66 24.5066C20.34 24.1999 20.1667 23.7733 20.1667 23.3333C20.1667 22.8933 20.34 22.4666 20.66 22.1599C20.7267 22.0799 20.82 22.0133 20.9134 21.9466C20.9934 21.8933 21.1 21.8399 21.1934 21.7999C21.3 21.7466 21.4067 21.7199 21.5134 21.6933C21.7267 21.6533 21.94 21.6533 22.1667 21.6933C22.26 21.7199 22.3667 21.7466 22.4734 21.7999C22.5667 21.8399 22.6734 21.8933 22.7534 21.9466C22.8467 22.0133 22.94 22.0799 23.0067 22.1599C23.3267 22.4666 23.5 22.8933 23.5 23.3333C23.5 23.7733 23.3267 24.1999 23.0067 24.5066Z" fill="#ED1C24"/>
<path id="Vector_2" d="M23.0334 2.66675H9.96671C7.68671 2.66675 5.83337 4.52008 5.83337 6.80008V10.0001C5.83337 10.3734 6.12671 10.6667 6.50004 10.6667H26.5C26.8734 10.6667 27.1667 10.3734 27.1667 10.0001V6.80008C27.1667 4.52008 25.3134 2.66675 23.0334 2.66675ZM19.8334 7.66675H13.1667C12.62 7.66675 12.1667 7.21341 12.1667 6.66675C12.1667 6.12008 12.62 5.66675 13.1667 5.66675H19.8334C20.38 5.66675 20.8334 6.12008 20.8334 6.66675C20.8334 7.21341 20.38 7.66675 19.8334 7.66675Z" fill="#ED1C24"/>
<path id="Vector_3" d="M26.5 16H6.50004C6.12671 16 5.83337 15.7067 5.83337 15.3333V12.6667C5.83337 12.2933 6.12671 12 6.50004 12H26.5C26.8734 12 27.1667 12.2933 27.1667 12.6667V15.3333C27.1667 15.7067 26.8734 16 26.5 16Z" fill="#ED1C24"/>
</g>
</g>
</svg>
