<svg width="22" height="22" viewBox="0 0 22 22" fill="none" xmlns="http://www.w3.org/2000/svg">
<g id="vuesax/outline/call">
<g id="call">
<path id="Vector" d="M15.9959 20.8542C14.96 20.8542 13.8692 20.6067 12.7417 20.13C11.6417 19.6625 10.5325 19.0208 9.45087 18.2417C8.37837 17.4533 7.34254 16.5733 6.36171 15.6108C5.39004 14.63 4.51004 13.5942 3.73087 12.5308C2.94254 11.4308 2.31004 10.3308 1.86087 9.26751C1.38421 8.13084 1.14587 7.03084 1.14587 5.99501C1.14587 5.28001 1.27421 4.60168 1.52171 3.96918C1.77837 3.31834 2.19087 2.71334 2.75004 2.19084C3.45587 1.49418 4.26254 1.14584 5.12421 1.14584C5.48171 1.14584 5.84837 1.22834 6.16004 1.37501C6.51754 1.54001 6.82004 1.78751 7.04004 2.11751L9.16671 5.11501C9.35921 5.38084 9.50587 5.63751 9.60671 5.89418C9.72587 6.16918 9.79004 6.44418 9.79004 6.71001C9.79004 7.05834 9.68921 7.39751 9.49671 7.71834C9.35921 7.96584 9.14837 8.23168 8.88254 8.49751L8.25921 9.14834C8.26837 9.17584 8.27754 9.19418 8.28671 9.21251C8.39671 9.40501 8.61671 9.73501 9.03837 10.23C9.48754 10.7433 9.90921 11.2108 10.3309 11.6417C10.8717 12.1733 11.3209 12.595 11.7425 12.9433C12.265 13.3833 12.6042 13.6033 12.8059 13.7042L12.7875 13.75L13.4567 13.09C13.7409 12.8058 14.0159 12.595 14.2817 12.4575C14.7859 12.1458 15.4275 12.0908 16.0692 12.3567C16.3075 12.4575 16.5642 12.595 16.8392 12.7875L19.8825 14.9508C20.2217 15.18 20.4692 15.4733 20.6159 15.8217C20.7534 16.17 20.8175 16.4908 20.8175 16.8117C20.8175 17.2517 20.7167 17.6917 20.5242 18.1042C20.3317 18.5167 20.0934 18.8742 19.7909 19.2042C19.2684 19.7817 18.7 20.1942 18.04 20.46C17.4075 20.7167 16.72 20.8542 15.9959 20.8542ZM5.12421 2.52084C4.62004 2.52084 4.15254 2.74084 3.70337 3.18084C3.28171 3.57501 2.98837 4.00584 2.80504 4.47334C2.61254 4.95001 2.52087 5.45418 2.52087 5.99501C2.52087 6.84751 2.72254 7.77334 3.12587 8.72668C3.53837 9.69834 4.11587 10.7067 4.84921 11.715C5.58254 12.7233 6.41671 13.7042 7.33337 14.63C8.25004 15.5375 9.24004 16.3808 10.2575 17.1233C11.2475 17.8475 12.265 18.4342 13.2734 18.8558C14.8409 19.525 16.3075 19.6808 17.5175 19.1767C17.985 18.9842 18.3975 18.6908 18.7734 18.2692C18.9842 18.04 19.1492 17.7925 19.2867 17.4992C19.3967 17.27 19.4517 17.0317 19.4517 16.7933C19.4517 16.6467 19.4242 16.5 19.3509 16.335C19.3234 16.28 19.2684 16.1792 19.0942 16.06L16.0509 13.8967C15.8675 13.7683 15.7025 13.6767 15.5467 13.6125C15.345 13.53 15.2625 13.4475 14.9509 13.64C14.7675 13.7317 14.6025 13.8692 14.4192 14.0525L13.7225 14.74C13.365 15.0883 12.815 15.1708 12.3934 15.015L12.1459 14.905C11.77 14.7033 11.33 14.3917 10.8442 13.9792C10.4042 13.6033 9.92754 13.1633 9.35004 12.595C8.90087 12.1367 8.45171 11.6508 7.98421 11.11C7.55337 10.6058 7.24171 10.175 7.04921 9.81751L6.93921 9.54251C6.88421 9.33168 6.86587 9.21251 6.86587 9.08418C6.86587 8.75418 6.98504 8.46084 7.21421 8.23168L7.90171 7.51668C8.08504 7.33334 8.22254 7.15918 8.31421 7.00334C8.38754 6.88418 8.41504 6.78334 8.41504 6.69168C8.41504 6.61834 8.38754 6.50834 8.34171 6.39834C8.27754 6.25168 8.17671 6.08668 8.04837 5.91251L5.92171 2.90584C5.83004 2.77751 5.72004 2.68584 5.58254 2.62168C5.43587 2.55751 5.28004 2.52084 5.12421 2.52084ZM12.7875 13.7592L12.6409 14.3825L12.8884 13.7408C12.8425 13.7317 12.8059 13.7408 12.7875 13.7592Z" fill="#1D2B36"/>
</g>
</g>
</svg>
