<svg width="22" height="22" viewBox="0 0 22 22" fill="none" xmlns="http://www.w3.org/2000/svg">
<g id="vuesax/outline/clock">
<g id="clock">
<path id="Vector" d="M11 20.8542C5.56421 20.8542 1.14587 16.4358 1.14587 11C1.14587 5.56418 5.56421 1.14584 11 1.14584C16.4359 1.14584 20.8542 5.56418 20.8542 11C20.8542 16.4358 16.4359 20.8542 11 20.8542ZM11 2.52084C6.32504 2.52084 2.52087 6.32501 2.52087 11C2.52087 15.675 6.32504 19.4792 11 19.4792C15.675 19.4792 19.4792 15.675 19.4792 11C19.4792 6.32501 15.675 2.52084 11 2.52084Z" fill="#1D2B36"/>
<path id="Vector_2" d="M14.4005 14.6025C14.2813 14.6025 14.1622 14.575 14.0522 14.5017L11.2105 12.8059C10.5047 12.3842 9.98218 11.4584 9.98218 10.6425V6.88419C9.98218 6.50835 10.2938 6.19669 10.6697 6.19669C11.0455 6.19669 11.3572 6.50835 11.3572 6.88419V10.6425C11.3572 10.9725 11.6322 11.4584 11.9163 11.6234L14.758 13.3192C15.088 13.5117 15.1888 13.9334 14.9963 14.2634C14.8588 14.4834 14.6297 14.6025 14.4005 14.6025Z" fill="#1D2B36"/>
</g>
</g>
</svg>
