<svg width="33" height="32" viewBox="0 0 33 32" fill="none" xmlns="http://www.w3.org/2000/svg">
<g id="vuesax/bold/health">
<g id="health">
<path id="Vector" d="M29.8333 10.4134V16.6667H24.3933C24.2333 16.6534 23.8866 16.4534 23.8066 16.3067L22.42 13.6801C21.8733 12.6401 20.9266 12.0534 19.9133 12.1067C18.9 12.1601 18.0333 12.8401 17.5933 13.9467L15.7533 18.5601L15.4866 17.8667C14.8333 16.1734 12.9666 14.8934 11.1266 14.8934L3.16663 14.9334V10.4134C3.16663 5.56008 6.05996 2.66675 10.9133 2.66675H22.0866C26.94 2.66675 29.8333 5.56008 29.8333 10.4134Z" fill="#9478F7"/>
<path id="Vector_2" d="M29.8333 21.5862V18.6662H24.3933C23.5 18.6662 22.4466 18.0262 22.0333 17.2395L20.6466 14.6129C20.2733 13.9062 19.74 13.9462 19.4466 14.6795L16.38 22.4262C16.0466 23.2929 15.4866 23.2929 15.14 22.4262L13.62 18.5862C13.26 17.6529 12.14 16.8929 11.14 16.8929L3.16663 16.9329V21.5862C3.16663 26.3595 5.96663 29.2395 10.6733 29.3195C10.82 29.3329 10.98 29.3329 11.1266 29.3329H21.7933C21.9933 29.3329 22.1933 29.3329 22.38 29.3195C27.06 29.2129 29.8333 26.3462 29.8333 21.5862Z" fill="#9478F7"/>
<path id="Vector_3" d="M3.16634 16.9336V21.3469C3.13968 20.9203 3.12634 20.4669 3.12634 20.0003V16.9336H3.16634Z" fill="#292D32"/>
</g>
</g>
</svg>
