<svg width="33" height="32" viewBox="0 0 33 32" fill="none" xmlns="http://www.w3.org/2000/svg">
<g id="vuesax/bold/home-2">
<g id="home-2">
<path id="Vector" d="M27.2204 9.09284L19.5404 3.71951C17.447 2.25284 14.2337 2.33284 12.2204 3.89284L5.54035 9.10618C4.20702 10.1462 3.15369 12.2795 3.15369 13.9595V23.1595C3.15369 26.5595 5.91369 29.3328 9.31369 29.3328H23.687C27.087 29.3328 29.847 26.5728 29.847 23.1728V14.1328C29.847 12.3328 28.687 10.1195 27.2204 9.09284ZM17.5004 23.9995C17.5004 24.5462 17.047 24.9995 16.5004 24.9995C15.9537 24.9995 15.5004 24.5462 15.5004 23.9995V19.9995C15.5004 19.4528 15.9537 18.9995 16.5004 18.9995C17.047 18.9995 17.5004 19.4528 17.5004 19.9995V23.9995Z" fill="#ED1C24"/>
</g>
</g>
</svg>
