<svg width="33" height="32" viewBox="0 0 33 32" fill="none" xmlns="http://www.w3.org/2000/svg">
<g id="vuesax/bold/hospital">
<g id="hospital">
<path id="Vector" d="M29.8333 28.3333H3.16663C2.61996 28.3333 2.16663 28.7866 2.16663 29.3333C2.16663 29.8799 2.61996 30.3333 3.16663 30.3333H29.8333C30.38 30.3333 30.8333 29.8799 30.8333 29.3333C30.8333 28.7866 30.38 28.3333 29.8333 28.3333Z" fill="#34CB96"/>
<path id="Vector_2" d="M23.1667 2.66675H9.83333C5.83333 2.66675 4.5 5.05341 4.5 8.00008V29.3334H12.5V21.2534C12.5 20.5601 13.06 20.0001 13.7533 20.0001H19.26C19.94 20.0001 20.5133 20.5601 20.5133 21.2534V29.3334H28.5133V8.00008C28.5 5.05341 27.1667 2.66675 23.1667 2.66675ZM19.8333 12.3334H17.5V14.6667C17.5 15.2134 17.0467 15.6667 16.5 15.6667C15.9533 15.6667 15.5 15.2134 15.5 14.6667V12.3334H13.1667C12.62 12.3334 12.1667 11.8801 12.1667 11.3334C12.1667 10.7867 12.62 10.3334 13.1667 10.3334H15.5V8.00008C15.5 7.45341 15.9533 7.00008 16.5 7.00008C17.0467 7.00008 17.5 7.45341 17.5 8.00008V10.3334H19.8333C20.38 10.3334 20.8333 10.7867 20.8333 11.3334C20.8333 11.8801 20.38 12.3334 19.8333 12.3334Z" fill="#34CB96"/>
</g>
</g>
</svg>
