<svg width="15" height="15" viewBox="0 0 15 15" fill="none" xmlns="http://www.w3.org/2000/svg">
<path d="M13.3334 0.333313C13.8646 0.333313 14.3334 0.802063 14.3334 1.36456V13.3333C14.3334 13.8958 13.8646 14.3333 13.3334 14.3333H1.30212C0.770874 14.3333 0.333374 13.8958 0.333374 13.3333V1.36456C0.333374 0.802063 0.770874 0.333313 1.30212 0.333313H13.3334ZM4.55212 12.3333V5.67706H2.48962V12.3333H4.55212ZM3.52087 4.73956C4.17712 4.73956 4.70837 4.20831 4.70837 3.55206C4.70837 2.89581 4.17712 2.33331 3.52087 2.33331C2.83337 2.33331 2.30212 2.89581 2.30212 3.55206C2.30212 4.20831 2.83337 4.73956 3.52087 4.73956ZM12.3334 12.3333V8.67706C12.3334 6.89581 11.9271 5.48956 9.83337 5.48956C8.83337 5.48956 8.14587 6.05206 7.86462 6.58331H7.83337V5.67706H5.86462V12.3333H7.92712V9.05206C7.92712 8.17706 8.08337 7.33331 9.17712 7.33331C10.2396 7.33331 10.2396 8.33331 10.2396 9.08331V12.3333H12.3334Z" fill="#1D2B36"/>
</svg>
