<svg width="15" height="15" viewBox="0 0 15 15" fill="none" xmlns="http://www.w3.org/2000/svg">
<path d="M7.33337 3.73956C9.30212 3.73956 10.9271 5.36456 10.9271 7.33331C10.9271 9.33331 9.30212 10.9271 7.33337 10.9271C5.33337 10.9271 3.73962 9.33331 3.73962 7.33331C3.73962 5.36456 5.33337 3.73956 7.33337 3.73956ZM7.33337 9.67706C8.61462 9.67706 9.64587 8.64581 9.64587 7.33331C9.64587 6.05206 8.61462 5.02081 7.33337 5.02081C6.02087 5.02081 4.98962 6.05206 4.98962 7.33331C4.98962 8.64581 6.05212 9.67706 7.33337 9.67706ZM11.8959 3.61456C11.8959 4.08331 11.5209 4.45831 11.0521 4.45831C10.5834 4.45831 10.2084 4.08331 10.2084 3.61456C10.2084 3.14581 10.5834 2.77081 11.0521 2.77081C11.5209 2.77081 11.8959 3.14581 11.8959 3.61456ZM14.2709 4.45831C14.3334 5.61456 14.3334 9.08331 14.2709 10.2396C14.2084 11.3646 13.9584 12.3333 13.1459 13.1771C12.3334 13.9896 11.3334 14.2396 10.2084 14.3021C9.05212 14.3646 5.58337 14.3646 4.42712 14.3021C3.30212 14.2396 2.33337 13.9896 1.48962 13.1771C0.677124 12.3333 0.427124 11.3646 0.364624 10.2396C0.302124 9.08331 0.302124 5.61456 0.364624 4.45831C0.427124 3.33331 0.677124 2.33331 1.48962 1.52081C2.33337 0.708313 3.30212 0.458313 4.42712 0.395813C5.58337 0.333313 9.05212 0.333313 10.2084 0.395813C11.3334 0.458313 12.3334 0.708313 13.1459 1.52081C13.9584 2.33331 14.2084 3.33331 14.2709 4.45831ZM12.7709 11.4583C13.1459 10.5521 13.0521 8.36456 13.0521 7.33331C13.0521 6.33331 13.1459 4.14581 12.7709 3.20831C12.5209 2.61456 12.0521 2.11456 11.4584 1.89581C10.5209 1.52081 8.33337 1.61456 7.33337 1.61456C6.30212 1.61456 4.11462 1.52081 3.20837 1.89581C2.58337 2.14581 2.11462 2.61456 1.86462 3.20831C1.48962 4.14581 1.58337 6.33331 1.58337 7.33331C1.58337 8.36456 1.48962 10.5521 1.86462 11.4583C2.11462 12.0833 2.58337 12.5521 3.20837 12.8021C4.11462 13.1771 6.30212 13.0833 7.33337 13.0833C8.33337 13.0833 10.5209 13.1771 11.4584 12.8021C12.0521 12.5521 12.5521 12.0833 12.7709 11.4583Z" fill="#1D2B36"/>
</svg>
