<svg width="33" height="32" viewBox="0 0 33 32" fill="none" xmlns="http://www.w3.org/2000/svg">
<g id="vuesax/bold/judge">
<g id="judge">
<path id="Vector" d="M27.887 25.3871C27.687 25.5871 27.4337 25.6804 27.1803 25.6804C26.927 25.6804 26.6737 25.5871 26.4737 25.3871L19.8737 18.7871L20.5803 18.0804L21.287 17.3738L27.887 23.9738C28.2737 24.3604 28.2737 25.0004 27.887 25.3871Z" fill="#9478F7"/>
<path id="Vector_2" d="M9.12714 12.3734L16.8605 20.1067C17.3805 20.6267 17.3805 21.4667 16.8605 21.9867L15.6605 23.2C14.5805 24.2667 12.8738 24.2667 11.8071 23.2L6.02047 17.4134C4.96714 16.36 4.96714 14.64 6.02047 13.5734L7.2338 12.36C7.7538 11.8534 8.60714 11.8534 9.12714 12.3734Z" fill="#9478F7"/>
<path id="Vector_3" d="M25.2864 13.5862L20.2064 18.6529C19.673 19.1862 18.8197 19.1862 18.2864 18.6529L10.5797 10.9462C10.0464 10.4129 10.0464 9.55958 10.5797 9.02625L15.6597 3.94625C16.713 2.89292 18.433 2.89292 19.4997 3.94625L25.2864 9.73292C26.3397 10.7996 26.3397 12.5062 25.2864 13.5862Z" fill="#9478F7"/>
<path id="Vector_4" d="M11.1666 29H3.16663C2.61996 29 2.16663 28.5467 2.16663 28C2.16663 27.4533 2.61996 27 3.16663 27H11.1666C11.7133 27 12.1666 27.4533 12.1666 28C12.1666 28.5467 11.7133 29 11.1666 29Z" fill="#9478F7"/>
</g>
</g>
</svg>
