<svg width="33" height="32" viewBox="0 0 33 32" fill="none" xmlns="http://www.w3.org/2000/svg">
<g id="vuesax/bold/lovely">
<g id="lovely">
<path id="Vector" d="M25.5664 13.2136C24.0597 13.2136 22.7131 13.947 21.8731 15.067C21.0331 13.947 19.6864 13.2136 18.1797 13.2136C15.6331 13.2136 13.5664 15.2936 13.5664 17.8536C13.5664 18.8403 13.7264 19.7603 13.9931 20.6003C15.2997 24.747 19.3531 27.2403 21.3531 27.9203C21.6331 28.0136 22.0997 28.0136 22.3797 27.9203C24.3797 27.2403 28.4331 24.7603 29.7397 20.6003C30.0197 19.747 30.1664 18.8403 30.1664 17.8536C30.1797 15.2936 28.1131 13.2136 25.5664 13.2136Z" fill="#ED1C24"/>
<path id="Vector_2" d="M28.1666 11.1195C28.1666 11.4261 27.86 11.6261 27.5666 11.5461C25.7666 11.0795 23.7933 11.4661 22.3 12.5328C22.0066 12.7461 21.6066 12.7461 21.3266 12.5328C20.2733 11.7595 18.9933 11.3328 17.6466 11.3328C14.2066 11.3328 11.4066 14.1461 11.4066 17.6128C11.4066 21.3728 13.2066 24.1861 15.02 26.0661C15.1133 26.1595 15.0333 26.3195 14.9133 26.2661C11.2733 25.0261 3.16663 19.8795 3.16663 11.1195C3.16663 7.25281 6.27329 4.13281 10.1133 4.13281C12.3933 4.13281 14.4066 5.22615 15.6733 6.91948C16.9533 5.22615 18.9666 4.13281 21.2333 4.13281C25.06 4.13281 28.1666 7.25281 28.1666 11.1195Z" fill="#ED1C24"/>
</g>
</g>
</svg>
