<svg width="33" height="32" viewBox="0 0 33 32" fill="none" xmlns="http://www.w3.org/2000/svg">
<g id="vuesax/bold/milk">
<g id="milk">
<path id="Vector" d="M24.5 21.3336V25.3336C24.5 27.5336 22.7 29.3336 20.5 29.3336H12.5C10.3 29.3336 8.5 27.5336 8.5 25.3336V19.9869C8.5 19.2536 9.1 18.6536 9.84667 18.6536L13.6867 18.6669C14.6067 18.6669 15.5133 18.8669 16.3533 19.2669C17.2733 19.6936 18.2467 20.0002 19.2733 20.0002H23.1667C23.9 20.0002 24.5 20.6002 24.5 21.3336Z" fill="#9478F7"/>
<path id="Vector_2" d="M23.7133 12.5467L20.8867 9.72008C20.6333 9.46675 20.5 9.13341 20.5 8.78675V6.54675C21.2733 6.28008 21.8333 5.53341 21.8333 4.66675C21.8333 3.56008 20.94 2.66675 19.8333 2.66675H13.1667C12.06 2.66675 11.1667 3.56008 11.1667 4.66675C11.1667 5.53341 11.7267 6.28008 12.5 6.54675V8.78675C12.5 9.13341 12.3667 9.46675 12.1133 9.72008L9.28667 12.5467C8.86 12.9734 8.5 13.8401 8.5 14.4401V15.3067C8.5 16.0401 9.08667 16.6401 9.82 16.6401L13.7 16.6667C15.0067 16.6667 16.3267 16.9867 17.5 17.6001C18.06 17.8934 18.7 18.0001 19.3267 18.0001H23.1667C23.9 18.0001 24.5 17.4001 24.5 16.6667V14.4401C24.5 13.8401 24.14 12.9734 23.7133 12.5467Z" fill="#9478F7"/>
</g>
</g>
</svg>
