<svg width="33" height="32" viewBox="0 0 33 32" fill="none" xmlns="http://www.w3.org/2000/svg">
<g id="vuesax/bold/people">
<g id="people">
<path id="Vector" d="M23.8734 10.3601C23.7801 10.3467 23.6867 10.3467 23.5934 10.3601C21.5267 10.2934 19.8867 8.60008 19.8867 6.52008C19.8867 4.40008 21.6067 2.66675 23.7401 2.66675C25.8601 2.66675 27.5934 4.38675 27.5934 6.52008C27.5801 8.60008 25.9401 10.2934 23.8734 10.3601Z" fill="#F5C242"/>
<path id="Vector_2" d="M28.2201 19.6005C26.7268 20.6005 24.6334 20.9739 22.7001 20.7205C23.2068 19.6272 23.4734 18.4139 23.4868 17.1339C23.4868 15.8005 23.1934 14.5339 22.6334 13.4272C24.6068 13.1605 26.7001 13.5339 28.2068 14.5339C30.3134 15.9205 30.3134 18.2005 28.2201 19.6005Z" fill="#F5C242"/>
<path id="Vector_3" d="M9.08692 10.3601C9.18025 10.3467 9.27358 10.3467 9.36692 10.3601C11.4336 10.2934 13.0736 8.60008 13.0736 6.52008C13.0736 4.38675 11.3536 2.66675 9.22025 2.66675C7.10025 2.66675 5.38025 4.38675 5.38025 6.52008C5.38025 8.60008 7.02025 10.2934 9.08692 10.3601Z" fill="#F5C242"/>
<path id="Vector_4" d="M9.23349 17.1341C9.23349 18.4275 9.51349 19.6541 10.0202 20.7608C8.14016 20.9608 6.18016 20.5608 4.74016 19.6141C2.63349 18.2141 2.63349 15.9341 4.74016 14.5341C6.16682 13.5741 8.18016 13.1875 10.0735 13.4008C9.52682 14.5208 9.23349 15.7875 9.23349 17.1341Z" fill="#F5C242"/>
<path id="Vector_5" d="M16.6598 21.16C16.5531 21.1467 16.4331 21.1467 16.3131 21.16C13.8598 21.08 11.8998 19.0667 11.8998 16.5867C11.9131 14.0533 13.9531 12 16.4998 12C19.0331 12 21.0864 14.0533 21.0864 16.5867C21.0731 19.0667 19.1264 21.08 16.6598 21.16Z" fill="#F5C242"/>
<path id="Vector_6" d="M12.3264 23.9208C10.3131 25.2674 10.3131 27.4808 12.3264 28.8141C14.6197 30.3474 18.3797 30.3474 20.6731 28.8141C22.6864 27.4674 22.6864 25.2541 20.6731 23.9208C18.3931 22.3874 14.6331 22.3874 12.3264 23.9208Z" fill="#F5C242"/>
</g>
</g>
</svg>
