<svg width="22" height="22" viewBox="0 0 22 22" fill="none" xmlns="http://www.w3.org/2000/svg">
<path d="M15.5834 19.4792H6.41671C3.07087 19.4792 1.14587 17.5542 1.14587 14.2083V7.79168C1.14587 4.44584 3.07087 2.52084 6.41671 2.52084H15.5834C18.9292 2.52084 20.8542 4.44584 20.8542 7.79168V14.2083C20.8542 17.5542 18.9292 19.4792 15.5834 19.4792ZM6.41671 3.89584C3.79504 3.89584 2.52087 5.17001 2.52087 7.79168V14.2083C2.52087 16.83 3.79504 18.1042 6.41671 18.1042H15.5834C18.205 18.1042 19.4792 16.83 19.4792 14.2083V7.79168C19.4792 5.17001 18.205 3.89584 15.5834 3.89584H6.41671Z" fill="#1D2B36"/>
<path d="M10.9998 11.7975C10.2298 11.7975 9.45059 11.5591 8.85476 11.0733L5.98559 8.78164C5.69225 8.54331 5.63726 8.11247 5.87559 7.81914C6.11393 7.5258 6.54476 7.47081 6.8381 7.70914L9.70725 10.0008C10.4039 10.56 11.5864 10.56 12.2831 10.0008L15.1523 7.70914C15.4456 7.47081 15.8856 7.51664 16.1148 7.81914C16.3531 8.11247 16.3073 8.55247 16.0048 8.78164L13.1356 11.0733C12.5489 11.5591 11.7698 11.7975 10.9998 11.7975Z" fill="#1D2B36"/>
</svg>
