<svg width="33" height="32" viewBox="0 0 33 32" fill="none" xmlns="http://www.w3.org/2000/svg">
<g id="vuesax/bold/weight">
<g id="weight">
<path id="Vector" d="M23.4063 7C21.1263 7 18.4062 7.86667 18.4062 12V20C18.4062 24.1333 21.1263 25 23.4063 25C25.6863 25 28.4063 24.1333 28.4063 20V12C28.4063 7.86667 25.6863 7 23.4063 7Z" fill="#34CB96"/>
<path id="Vector_2" d="M9.59375 7C7.31375 7 4.59375 7.86667 4.59375 12V20C4.59375 24.1333 7.31375 25 9.59375 25C11.8738 25 14.5938 24.1333 14.5938 20V12C14.5938 7.86667 11.8738 7 9.59375 7Z" fill="#34CB96"/>
<path id="Vector_3" d="M18.4071 15H14.5938V17H18.4071V15Z" fill="#34CB96"/>
<path id="Vector_4" d="M30.5 20.3334C29.9533 20.3334 29.5 19.8801 29.5 19.3334V12.6667C29.5 12.1201 29.9533 11.6667 30.5 11.6667C31.0467 11.6667 31.5 12.1201 31.5 12.6667V19.3334C31.5 19.8801 31.0467 20.3334 30.5 20.3334Z" fill="#34CB96"/>
<path id="Vector_5" d="M2.5 20.3334C1.95333 20.3334 1.5 19.8801 1.5 19.3334V12.6667C1.5 12.1201 1.95333 11.6667 2.5 11.6667C3.04667 11.6667 3.5 12.1201 3.5 12.6667V19.3334C3.5 19.8801 3.04667 20.3334 2.5 20.3334Z" fill="#34CB96"/>
</g>
</g>
</svg>
